<?xml version="1.0" encoding="UTF-8" standalone="no"?>
<!DOCTYPE svg PUBLIC "-//W3C//DTD SVG 20010904//EN"
              "http://www.w3.org/TR/2001/REC-SVG-20010904/DTD/svg10.dtd">

<svg xmlns="http://www.w3.org/2000/svg"
     width="36.6908mm" height="51.861mm"
     viewBox="0 0 208 294">
  <path id="Selection"
        fill="none" stroke="black" stroke-width="1"
        d="M 10.00,288.00
           C 8.32,287.71 7.05,287.75 5.74,286.40
             3.09,283.69 4.00,271.11 4.00,267.00
             4.00,267.00 4.00,199.00 4.00,199.00
             4.00,199.00 4.00,140.00 4.00,140.00
             4.00,140.00 4.00,110.00 4.00,110.00
             4.05,80.44 18.30,53.04 41.00,34.46
             80.92,1.80 141.50,5.36 178.96,39.85
             189.41,49.47 204.19,69.37 205.00,84.00
             201.29,81.22 200.42,76.07 198.51,72.00
             195.61,65.81 190.71,58.39 186.49,53.00
             168.27,29.75 140.21,16.08 111.00,14.09
             99.49,13.30 85.89,16.04 75.00,19.67
             64.45,23.18 58.16,26.28 49.00,32.72
             29.89,46.16 15.14,66.31 9.16,89.00
             5.10,104.36 6.00,120.28 6.00,136.00
             6.00,136.00 6.00,204.00 6.00,204.00
             6.00,204.00 6.00,255.00 6.00,255.00
             6.00,260.01 5.45,278.45 6.72,281.96
             6.72,281.96 10.00,288.00 10.00,288.00 Z
           M 16.00,277.00
           C 16.00,277.00 16.00,105.00 16.00,105.00
             16.02,94.79 17.77,90.46 21.00,81.00
             25.05,69.17 32.16,58.75 41.00,50.00
             79.21,12.18 145.53,14.27 179.49,57.00
             190.01,70.24 197.97,88.93 198.00,106.00
             198.00,106.00 198.00,143.00 198.00,143.00
             198.00,143.00 198.00,277.00 198.00,277.00
             198.00,277.00 16.00,277.00 16.00,277.00 Z
           M 133.00,29.00
           C 115.73,26.57 112.13,22.99 93.00,26.46
             60.43,32.38 33.02,53.05 22.33,85.00
             19.34,93.95 18.02,97.36 18.00,107.00
             18.00,107.00 18.00,275.00 18.00,275.00
             18.00,275.00 196.00,275.00 196.00,275.00
             196.00,275.00 196.00,106.00 196.00,106.00
             195.73,82.85 179.98,57.73 162.00,44.04
             158.45,41.34 145.13,32.57 141.04,32.70
             138.86,32.77 138.38,33.68 137.00,35.00
             143.64,37.86 152.36,41.38 156.00,48.00
             148.06,44.84 143.12,42.07 134.00,44.99
             117.08,50.40 110.97,72.02 121.56,85.99
             134.29,102.78 158.69,98.16 166.23,79.00
             170.24,68.78 166.60,64.20 164.00,55.00
             170.03,57.10 174.03,62.79 177.41,68.00
             185.56,80.59 189.00,91.13 190.09,106.00
             190.09,106.00 190.82,113.00 190.82,113.00
             190.82,113.00 190.09,120.00 190.09,120.00
             187.03,161.83 152.10,192.89 111.00,195.82
             103.99,196.32 89.95,193.71 83.00,191.71
             73.05,188.85 64.32,184.46 56.00,178.24
             22.49,153.21 13.89,104.41 35.46,69.00
             43.69,55.50 56.06,44.78 70.00,37.49
             80.12,32.20 94.60,29.13 106.00,29.00
             113.88,28.91 113.21,29.45 120.00,30.00
             118.45,33.91 112.13,41.98 108.00,37.00
             95.11,42.55 76.85,49.84 74.00,65.00
             74.00,65.00 86.00,55.47 86.00,55.47
             93.89,50.60 105.21,47.07 114.00,43.55
             125.92,38.78 126.91,38.94 127.00,31.00
             127.00,31.00 133.00,29.00 133.00,29.00 Z
           M 114.00,31.00
           C 106.67,31.00 99.24,31.17 92.00,32.46
             65.38,37.21 42.44,56.32 31.87,81.00
             13.39,124.16 37.59,176.41 83.00,189.42
             89.80,191.37 94.82,192.84 102.00,193.00
             99.29,186.70 96.07,182.53 100.65,176.01
             104.97,169.87 113.68,166.66 111.83,162.06
             110.60,159.01 103.91,156.25 101.00,154.57
             92.58,149.71 86.17,142.43 88.53,132.00
             91.02,121.01 101.50,117.34 111.00,114.00
             113.76,113.03 120.56,111.26 118.83,107.06
             117.33,103.43 110.52,101.76 107.00,101.09
             98.41,99.47 84.90,99.31 78.02,94.35
             65.14,85.09 67.95,63.79 77.21,53.00
             84.62,44.37 103.47,36.55 114.00,31.00 Z
           M 137.00,31.00
           C 137.00,31.00 136.00,31.00 136.00,31.00
             136.00,31.00 137.00,32.00 137.00,32.00
             137.00,32.00 137.00,31.00 137.00,31.00 Z
           M 132.00,33.00
           C 132.00,33.00 129.00,33.00 129.00,33.00
             128.69,41.78 123.39,42.08 116.00,45.14
             105.04,49.67 91.17,53.41 82.09,61.02
             79.09,63.53 73.45,68.82 73.45,72.96
             73.45,78.28 82.65,82.46 87.00,83.70
             92.83,85.36 95.62,84.65 101.00,85.43
             111.14,86.89 113.98,88.75 123.00,92.00
             118.74,85.60 116.20,82.92 114.52,75.00
             111.97,63.03 118.65,50.73 129.00,44.79
             136.07,40.73 139.33,43.25 145.00,41.00
             140.48,39.05 134.67,37.31 132.00,33.00 Z
           M 113.00,35.00
           C 113.00,35.00 112.00,35.00 112.00,35.00
             112.00,35.00 113.00,36.00 113.00,36.00
             113.00,36.00 113.00,35.00 113.00,35.00 Z
           M 149.00,42.00
           C 149.00,42.00 148.00,42.00 148.00,42.00
             148.00,42.00 149.00,43.00 149.00,43.00
             149.00,43.00 149.00,42.00 149.00,42.00 Z
           M 152.00,44.00
           C 152.00,44.00 151.00,44.00 151.00,44.00
             151.00,44.00 152.00,45.00 152.00,45.00
             152.00,45.00 152.00,44.00 152.00,44.00 Z
           M 155.00,46.00
           C 155.00,46.00 154.00,46.00 154.00,46.00
             154.00,46.00 155.00,47.00 155.00,47.00
             155.00,47.00 155.00,46.00 155.00,46.00 Z
           M 168.00,58.00
           C 168.00,58.00 167.00,58.00 167.00,58.00
             167.00,58.00 168.00,59.00 168.00,59.00
             168.00,59.00 168.00,58.00 168.00,58.00 Z
           M 169.00,60.00
           C 169.00,60.00 168.00,60.00 168.00,60.00
             168.00,60.00 169.00,61.00 169.00,61.00
             169.00,61.00 169.00,60.00 169.00,60.00 Z
           M 170.00,62.00
           C 168.86,67.35 171.46,71.77 168.23,80.00
             165.35,87.33 157.85,95.67 150.00,97.73
             147.69,98.15 142.58,98.01 140.00,97.73
             138.11,97.99 135.83,98.03 134.00,97.73
             130.62,96.84 127.35,94.40 124.00,93.00
             126.11,96.05 129.27,99.53 130.35,103.00
             133.83,114.19 121.65,122.07 113.00,125.85
             113.00,125.85 99.06,131.41 99.06,131.41
             97.13,132.58 95.11,134.30 96.17,136.80
             97.91,140.94 108.09,142.39 113.73,149.04
             120.35,156.87 118.34,168.15 112.95,176.00
             110.74,179.21 106.23,183.44 105.47,187.00
             103.69,195.42 112.15,193.51 117.00,192.95
             128.60,191.60 140.04,187.21 150.00,181.25
             190.60,156.94 202.10,97.81 170.00,62.00 Z
           M 74.00,65.00
           C 74.00,65.00 73.00,65.00 73.00,65.00
             73.00,65.00 74.00,66.00 74.00,66.00
             74.00,66.00 74.00,65.00 74.00,65.00 Z
           M 73.00,67.00
           C 73.00,67.00 72.00,67.00 72.00,67.00
             72.00,67.00 73.00,68.00 73.00,68.00
             73.00,68.00 73.00,67.00 73.00,67.00 Z
           M 72.00,71.00
           C 72.00,71.00 71.00,71.00 71.00,71.00
             71.00,71.00 72.00,72.00 72.00,72.00
             72.00,72.00 72.00,71.00 72.00,71.00 Z
           M 73.00,79.00
           C 71.04,85.15 76.75,91.56 82.00,94.08
             89.50,97.68 102.30,97.41 111.00,99.76
             114.70,100.75 120.43,103.04 121.75,107.01
             123.27,111.58 117.28,114.08 114.00,115.30
             104.58,118.80 92.88,121.67 90.54,133.00
             89.97,135.78 90.36,138.33 91.22,141.00
             94.79,152.04 106.01,153.15 111.86,158.38
             113.69,160.02 114.72,161.96 116.00,164.00
             115.82,156.01 114.24,150.71 107.00,146.35
             102.83,143.84 91.72,140.48 93.66,134.04
             94.96,129.70 101.21,128.00 105.00,126.66
             112.40,124.04 121.21,120.33 126.06,113.91
             132.31,105.63 126.47,97.87 119.00,93.13
             109.23,86.93 98.14,88.37 88.00,86.18
             81.80,84.84 78.27,82.21 73.00,79.00 Z
           M 124.00,92.00
           C 124.00,92.00 123.00,92.00 123.00,92.00
             123.00,92.00 124.00,93.00 124.00,93.00
             124.00,93.00 124.00,92.00 124.00,92.00 Z
           M 25.00,154.00
           C 30.22,155.71 30.31,158.57 33.06,163.00
             35.70,167.23 40.63,173.41 44.09,176.96
             57.82,191.06 80.12,201.76 100.00,202.00
             127.48,202.32 148.61,192.31 168.99,174.42
             174.06,169.97 179.45,163.41 183.58,158.02
             184.70,156.55 187.13,152.80 189.44,154.17
             191.35,155.30 191.00,160.05 191.00,162.00
             191.00,162.00 191.00,244.00 191.00,244.00
             191.00,244.00 191.00,262.00 191.00,262.00
             190.96,263.95 191.10,266.63 189.40,267.98
             187.81,269.23 183.99,269.00 182.00,269.00
             182.00,269.00 25.00,269.00 25.00,269.00
             25.00,269.00 25.00,154.00 25.00,154.00 Z
           M 189.00,156.00
           C 189.00,156.00 181.71,165.00 181.71,165.00
             174.99,172.95 167.53,180.23 159.00,186.23
             128.12,207.96 85.54,211.10 54.00,188.96
             45.87,183.25 38.75,176.13 33.04,168.00
             33.04,168.00 27.00,159.00 27.00,159.00
             27.00,159.00 27.00,267.00 27.00,267.00
             27.00,267.00 151.00,267.00 151.00,267.00
             151.00,267.00 177.00,267.00 177.00,267.00
             177.00,267.00 187.40,265.98 187.40,265.98
             187.40,265.98 189.00,258.00 189.00,258.00
             189.00,258.00 189.00,156.00 189.00,156.00 Z
           M 115.00,167.00
           C 115.00,167.00 114.00,167.00 114.00,167.00
             114.00,167.00 115.00,168.00 115.00,168.00
             115.00,168.00 115.00,167.00 115.00,167.00 Z
           M 114.00,168.00
           C 106.55,171.45 96.45,179.33 103.00,188.00
             103.00,188.00 114.00,168.00 114.00,168.00 Z
           M 38.00,229.00
           C 38.00,229.00 84.00,229.00 84.00,229.00
             84.00,229.00 84.00,238.00 84.00,238.00
             84.00,238.00 52.00,238.00 52.00,238.00
             52.00,238.00 52.00,242.00 52.00,242.00
             52.00,242.00 84.00,242.00 84.00,242.00
             84.00,242.00 84.00,250.00 84.00,250.00
             84.00,250.00 52.00,250.00 52.00,250.00
             52.00,250.00 52.00,255.00 52.00,255.00
             52.00,255.00 84.00,255.00 84.00,255.00
             84.00,255.00 84.00,263.00 84.00,263.00
             84.00,263.00 38.00,263.00 38.00,263.00
             38.00,263.00 38.00,229.00 38.00,229.00 Z
           M 96.00,229.00
           C 96.00,229.00 109.00,229.00 109.00,229.00
             109.00,229.00 109.00,262.00 109.00,262.00
             109.00,262.00 96.00,262.00 96.00,262.00
             96.00,262.00 96.00,229.00 96.00,229.00 Z
           M 122.00,229.00
           C 122.00,229.00 135.00,229.00 135.00,229.00
             135.00,229.00 135.00,240.00 135.00,240.00
             135.00,240.00 161.00,240.00 161.00,240.00
             161.00,240.00 161.00,229.00 161.00,229.00
             161.00,229.00 175.00,229.00 175.00,229.00
             175.00,229.00 175.00,263.00 175.00,263.00
             175.00,263.00 161.00,263.00 161.00,263.00
             161.00,263.00 161.00,251.00 161.00,251.00
             161.00,251.00 135.00,251.00 135.00,251.00
             135.00,251.00 135.00,263.00 135.00,263.00
             135.00,263.00 122.00,263.00 122.00,263.00
             122.00,263.00 122.00,229.00 122.00,229.00 Z
           M 82.00,231.00
           C 82.00,231.00 40.00,231.00 40.00,231.00
             40.00,231.00 40.00,261.00 40.00,261.00
             40.00,261.00 82.00,261.00 82.00,261.00
             82.00,261.00 82.00,257.00 82.00,257.00
             82.00,257.00 50.00,257.00 50.00,257.00
             50.00,257.00 50.00,248.00 50.00,248.00
             50.00,248.00 82.00,248.00 82.00,248.00
             82.00,248.00 82.00,244.00 82.00,244.00
             82.00,244.00 50.00,244.00 50.00,244.00
             50.00,244.00 50.00,236.00 50.00,236.00
             50.00,236.00 82.00,236.00 82.00,236.00
             82.00,236.00 82.00,231.00 82.00,231.00 Z
           M 107.00,231.00
           C 107.00,231.00 98.00,231.00 98.00,231.00
             98.00,231.00 98.00,260.00 98.00,260.00
             98.00,260.00 107.00,260.00 107.00,260.00
             107.00,260.00 107.00,231.00 107.00,231.00 Z
           M 133.00,231.00
           C 133.00,231.00 124.00,231.00 124.00,231.00
             124.00,231.00 124.00,261.00 124.00,261.00
             124.00,261.00 133.00,261.00 133.00,261.00
             133.00,261.00 133.00,249.00 133.00,249.00
             133.00,249.00 163.00,249.00 163.00,249.00
             163.00,249.00 163.00,261.00 163.00,261.00
             163.00,261.00 173.00,261.00 173.00,261.00
             173.00,261.00 173.00,231.00 173.00,231.00
             173.00,231.00 163.00,231.00 163.00,231.00
             163.00,231.00 163.00,242.00 163.00,242.00
             163.00,242.00 133.00,242.00 133.00,242.00
             133.00,242.00 133.00,231.00 133.00,231.00 Z" />
</svg>
